<svg width="33" height="32" viewBox="0 0 33 32" fill="none" xmlns="http://www.w3.org/2000/svg">
<path d="M26.25 7V11C26.25 11.1989 26.171 11.3897 26.0303 11.5303C25.8897 11.671 25.6989 11.75 25.5 11.75C25.3011 11.75 25.1103 11.671 24.9697 11.5303C24.829 11.3897 24.75 11.1989 24.75 11V7.75H17.25V24.25H20.5C20.6989 24.25 20.8897 24.329 21.0303 24.4697C21.171 24.6103 21.25 24.8011 21.25 25C21.25 25.1989 21.171 25.3897 21.0303 25.5303C20.8897 25.671 20.6989 25.75 20.5 25.75H12.5C12.3011 25.75 12.1103 25.671 11.9697 25.5303C11.829 25.3897 11.75 25.1989 11.75 25C11.75 24.8011 11.829 24.6103 11.9697 24.4697C12.1103 24.329 12.3011 24.25 12.5 24.25H15.75V7.75H8.25V11C8.25 11.1989 8.17098 11.3897 8.03033 11.5303C7.88968 11.671 7.69891 11.75 7.5 11.75C7.30109 11.75 7.11032 11.671 6.96967 11.5303C6.82902 11.3897 6.75 11.1989 6.75 11V7C6.75 6.80109 6.82902 6.61032 6.96967 6.46967C7.11032 6.32902 7.30109 6.25 7.5 6.25H25.5C25.6989 6.25 25.8897 6.32902 26.0303 6.46967C26.171 6.61032 26.25 6.80109 26.25 7Z" fill="white"/>
</svg>
