<svg width="32" height="32" viewBox="0 0 32 32" fill="none" xmlns="http://www.w3.org/2000/svg">
<path d="M25.5417 4H5.95833C5.43895 4 4.94084 4.20632 4.57358 4.57358C4.20632 4.94084 4 5.43895 4 5.95833V25.5417C4 26.061 4.20632 26.5592 4.57358 26.9264C4.94084 27.2937 5.43895 27.5 5.95833 27.5H25.5417C26.061 27.5 26.5592 27.2937 26.9264 26.9264C27.2937 26.5592 27.5 26.061 27.5 25.5417V5.95833C27.5 5.43895 27.2937 4.94084 26.9264 4.57358C26.5592 4.20632 26.061 4 25.5417 4ZM5.95833 5.95833H25.5417V15.4293L22.5197 12.4061C22.1525 12.0392 21.6546 11.833 21.1354 11.833C20.6163 11.833 20.1183 12.0392 19.7511 12.4061L6.6156 25.5417H5.95833V5.95833ZM9.875 11.8333C9.875 11.446 9.98985 11.0674 10.205 10.7453C10.4202 10.4233 10.7261 10.1723 11.0839 10.0241C11.4418 9.87585 11.8355 9.83707 12.2154 9.91263C12.5953 9.98819 12.9442 10.1747 13.2181 10.4486C13.492 10.7225 13.6785 11.0714 13.754 11.4513C13.8296 11.8312 13.7908 12.2249 13.6426 12.5828C13.4944 12.9406 13.2434 13.2464 12.9213 13.4616C12.5993 13.6768 12.2207 13.7917 11.8333 13.7917C11.314 13.7917 10.8158 13.5853 10.4486 13.2181C10.0813 12.8508 9.875 12.3527 9.875 11.8333Z" fill="white"/>
</svg>
