<svg width="44" height="44" viewBox="0 0 44 44" fill="none" xmlns="http://www.w3.org/2000/svg">
<circle cx="22" cy="22" r="18" fill="#333333"/>
<path d="M16.2199 21.2199L23.7191 13.7208C23.7888 13.6511 23.8715 13.5958 23.9625 13.5581C24.0536 13.5204 24.1511 13.501 24.2497 13.501C24.3482 13.501 24.4458 13.5204 24.5368 13.5581C24.6278 13.5958 24.7106 13.6511 24.7802 13.7208C24.8499 13.7905 24.9052 13.8732 24.9429 13.9642C24.9806 14.0552 25 14.1528 25 14.2513C25 14.3499 24.9806 14.4474 24.9429 14.5385C24.9052 14.6295 24.8499 14.7122 24.7802 14.7819L17.8107 21.7505L24.7802 28.7191C24.9209 28.8598 25 29.0507 25 29.2497C25 29.4487 24.9209 29.6395 24.7802 29.7802C24.6395 29.9209 24.4487 30 24.2497 30C24.0507 30 23.8598 29.9209 23.7191 29.7802L16.2199 22.2811C16.1502 22.2114 16.0949 22.1287 16.0572 22.0377C16.0194 21.9466 16 21.8491 16 21.7505C16 21.652 16.0194 21.5544 16.0572 21.4633C16.0949 21.3723 16.1502 21.2896 16.2199 21.2199Z" fill="#F9F8F8"/>
</svg>
