<svg width="33" height="32" viewBox="0 0 33 32" fill="none" xmlns="http://www.w3.org/2000/svg">
<path d="M26.5 4.25H6.5C6.03587 4.25 5.59075 4.43437 5.26256 4.76256C4.93437 5.09075 4.75 5.53587 4.75 6V26C4.75 26.4641 4.93437 26.9092 5.26256 27.2374C5.59075 27.5656 6.03587 27.75 6.5 27.75H26.5C26.9641 27.75 27.4092 27.5656 27.7374 27.2374C28.0656 26.9092 28.25 26.4641 28.25 26V6C28.25 5.53587 28.0656 5.09075 27.7374 4.76256C27.4092 4.43437 26.9641 4.25 26.5 4.25ZM6.25 26V6C6.25 5.9337 6.27634 5.87011 6.32322 5.82322C6.37011 5.77634 6.4337 5.75 6.5 5.75H26.5C26.5663 5.75 26.6299 5.77634 26.6768 5.82322C26.7237 5.87011 26.75 5.9337 26.75 6V16.275L23.2375 12.7625C23.075 12.6 22.8821 12.4711 22.6697 12.3831C22.4574 12.2951 22.2298 12.2499 22 12.2499C21.7702 12.2499 21.5426 12.2951 21.3303 12.3831C21.1179 12.4711 20.925 12.6 20.7625 12.7625L7.275 26.25H6.5C6.4337 26.25 6.37011 26.2237 6.32322 26.1768C6.27634 26.1299 6.25 26.0663 6.25 26ZM26.5 26.25H9.39625L21.8225 13.8237C21.8457 13.8005 21.8733 13.7821 21.9036 13.7695C21.934 13.7569 21.9665 13.7504 21.9994 13.7504C22.0322 13.7504 22.0648 13.7569 22.0951 13.7695C22.1255 13.7821 22.153 13.8005 22.1763 13.8237L26.75 18.3962V26C26.75 26.0663 26.7237 26.1299 26.6768 26.1768C26.6299 26.2237 26.5663 26.25 26.5 26.25ZM12.5 14.75C13.0439 14.75 13.5756 14.5887 14.0278 14.2865C14.4801 13.9844 14.8325 13.5549 15.0407 13.0524C15.2488 12.5499 15.3033 11.9969 15.1972 11.4635C15.0911 10.9301 14.8291 10.4401 14.4445 10.0555C14.0599 9.67086 13.5699 9.40895 13.0365 9.30284C12.5031 9.19673 11.9501 9.25119 11.4476 9.45933C10.9451 9.66747 10.5156 10.0199 10.2135 10.4722C9.91129 10.9244 9.75 11.4561 9.75 12C9.75 12.7293 10.0397 13.4288 10.5555 13.9445C11.0712 14.4603 11.7707 14.75 12.5 14.75ZM12.5 10.75C12.7472 10.75 12.9889 10.8233 13.1945 10.9607C13.4 11.098 13.5602 11.2932 13.6548 11.5216C13.7495 11.7501 13.7742 12.0014 13.726 12.2439C13.6778 12.4863 13.5587 12.7091 13.3839 12.8839C13.2091 13.0587 12.9863 13.1778 12.7439 13.226C12.5014 13.2742 12.2501 13.2495 12.0216 13.1548C11.7932 13.0602 11.598 12.9 11.4607 12.6945C11.3233 12.4889 11.25 12.2472 11.25 12C11.25 11.6685 11.3817 11.3505 11.6161 11.1161C11.8505 10.8817 12.1685 10.75 12.5 10.75Z" fill="white"/>
</svg>
