<svg width="32" height="32" viewBox="0 0 32 32" fill="none" xmlns="http://www.w3.org/2000/svg">
<path d="M16 0C12.8355 0 9.74207 0.938384 7.11088 2.69649C4.4797 4.45459 2.42894 6.95345 1.21793 9.87706C0.0069325 12.8007 -0.309921 16.0177 0.307443 19.1214C0.924806 22.2251 2.44866 25.0761 4.6863 27.3137C6.92394 29.5513 9.77486 31.0752 12.8786 31.6926C15.9823 32.3099 19.1993 31.9931 22.1229 30.7821C25.0466 29.5711 27.5454 27.5203 29.3035 24.8891C31.0616 22.2579 32 19.1645 32 16C31.9955 11.7579 30.3084 7.69085 27.3088 4.69124C24.3092 1.69163 20.2421 0.00447972 16 0ZM23.0246 13.1785L14.4092 21.7938C14.2949 21.9083 14.1592 21.9991 14.0098 22.061C13.8604 22.1229 13.7002 22.1548 13.5385 22.1548C13.3767 22.1548 13.2166 22.1229 13.0672 22.061C12.9177 21.9991 12.782 21.9083 12.6677 21.7938L8.97539 18.1015C8.74445 17.8706 8.61471 17.5574 8.61471 17.2308C8.61471 16.9042 8.74445 16.5909 8.97539 16.36C9.20633 16.1291 9.51956 15.9993 9.84616 15.9993C10.1728 15.9993 10.486 16.1291 10.7169 16.36L13.5385 19.1831L21.2831 11.4369C21.3974 11.3226 21.5332 11.2319 21.6826 11.17C21.832 11.1081 21.9921 11.0762 22.1538 11.0762C22.3156 11.0762 22.4757 11.1081 22.6251 11.17C22.7745 11.2319 22.9103 11.3226 23.0246 11.4369C23.139 11.5513 23.2297 11.687 23.2916 11.8364C23.3535 11.9858 23.3853 12.146 23.3853 12.3077C23.3853 12.4694 23.3535 12.6295 23.2916 12.7789C23.2297 12.9284 23.139 13.0641 23.0246 13.1785Z" fill="white"/>
</svg>
