<svg width="32" height="32" viewBox="0 0 32 32" fill="none" xmlns="http://www.w3.org/2000/svg">
<path d="M29.7524 7.00006V13.0001C29.7524 13.199 29.6734 13.3897 29.5327 13.5304C29.3921 13.671 29.2013 13.7501 29.0024 13.7501H23.0024C22.8035 13.7501 22.6127 13.671 22.472 13.5304C22.3314 13.3897 22.2524 13.199 22.2524 13.0001C22.2524 12.8011 22.3314 12.6104 22.472 12.4697C22.6127 12.3291 22.8035 12.2501 23.0024 12.2501H27.0711L23.2736 8.77506C23.2661 8.76756 23.2586 8.75881 23.2499 8.75131C21.8251 7.32733 20.0123 6.35475 18.0379 5.95506C16.0636 5.55537 14.0152 5.74629 12.1488 6.50398C10.2823 7.26166 8.68047 8.55251 7.54337 10.2153C6.40627 11.878 5.78432 13.839 5.75522 15.8532C5.72611 17.8674 6.29114 19.8455 7.37972 21.5404C8.46831 23.2353 10.0322 24.5719 11.876 25.3832C13.7198 26.1945 15.7617 26.4445 17.7468 26.102C19.7319 25.7596 21.572 24.8398 23.0374 23.4576C23.1821 23.321 23.3751 23.2475 23.574 23.2532C23.7729 23.2589 23.9614 23.3435 24.098 23.4882C24.2346 23.6329 24.3081 23.8259 24.3023 24.0248C24.2966 24.2237 24.2121 24.4122 24.0674 24.5488C21.8897 26.6117 19.002 27.7579 16.0024 27.7501H15.8424C13.9183 27.723 12.0304 27.2237 10.3444 26.2963C8.65842 25.3688 7.22603 24.0415 6.17307 22.4309C5.12012 20.8203 4.47883 18.9757 4.30555 17.0593C4.13227 15.1429 4.43231 13.2132 5.1793 11.4399C5.92629 9.66656 7.09736 8.10381 8.58963 6.88897C10.0819 5.67413 11.8497 4.84437 13.7377 4.4726C15.6257 4.10084 17.5761 4.19843 19.4175 4.75683C21.259 5.31522 22.9351 6.31731 24.2986 7.67506L28.2524 11.2938V7.00006C28.2524 6.80114 28.3314 6.61038 28.472 6.46973C28.6127 6.32907 28.8035 6.25006 29.0024 6.25006C29.2013 6.25006 29.3921 6.32907 29.5327 6.46973C29.6734 6.61038 29.7524 6.80114 29.7524 7.00006Z" fill="white"/>
</svg>
