<svg width="32" height="32" viewBox="0 0 32 32" fill="none" xmlns="http://www.w3.org/2000/svg">
<path d="M26.9804 7.29412H23.0288L21.0784 4.36647C21.0031 4.25356 20.901 4.16102 20.7813 4.09709C20.6616 4.03315 20.5279 3.9998 20.3922 4H11.6078C11.4721 3.9998 11.3384 4.03315 11.2187 4.09709C11.099 4.16102 10.9969 4.25356 10.9216 4.36647L8.9698 7.29412H5.01961C4.21876 7.29412 3.45071 7.61225 2.88442 8.17854C2.31814 8.74483 2 9.51288 2 10.3137V25.6863C2 26.4871 2.31814 27.2552 2.88442 27.8215C3.45071 28.3877 4.21876 28.7059 5.01961 28.7059H26.9804C27.7812 28.7059 28.5493 28.3877 29.1156 27.8215C29.6819 27.2552 30 26.4871 30 25.6863V10.3137C30 9.51288 29.6819 8.74483 29.1156 8.17854C28.5493 7.61225 27.7812 7.29412 26.9804 7.29412ZM28.3529 25.6863C28.3529 26.0503 28.2083 26.3994 27.9509 26.6568C27.6935 26.9142 27.3444 27.0588 26.9804 27.0588H5.01961C4.65559 27.0588 4.30647 26.9142 4.04907 26.6568C3.79167 26.3994 3.64706 26.0503 3.64706 25.6863V10.3137C3.64706 9.9497 3.79167 9.60059 4.04907 9.34319C4.30647 9.08579 4.65559 8.94118 5.01961 8.94118H9.41177C9.5475 8.94138 9.68117 8.90803 9.80091 8.84409C9.92064 8.78016 10.0227 8.68762 10.098 8.57471L12.0484 5.64706H19.9502L21.902 8.57471C21.9773 8.68762 22.0794 8.78016 22.1991 8.84409C22.3188 8.90803 22.4525 8.94138 22.5882 8.94118H26.9804C27.3444 8.94118 27.6935 9.08579 27.9509 9.34319C28.2083 9.60059 28.3529 9.9497 28.3529 10.3137V25.6863ZM16 11.6863C14.8598 11.6863 13.7453 12.0244 12.7973 12.6578C11.8493 13.2912 11.1104 14.1916 10.6741 15.2449C10.2378 16.2983 10.1236 17.4574 10.3461 18.5756C10.5685 19.6939 11.1175 20.721 11.9237 21.5272C12.7299 22.3335 13.7571 22.8825 14.8754 23.1049C15.9936 23.3274 17.1527 23.2132 18.2061 22.7769C19.2594 22.3406 20.1597 21.6017 20.7932 20.6537C21.4266 19.7057 21.7647 18.5911 21.7647 17.451C21.7647 15.9221 21.1574 14.4558 20.0763 13.3747C18.9952 12.2936 17.5289 11.6863 16 11.6863ZM16 21.5686C15.1856 21.5686 14.3895 21.3271 13.7124 20.8747C13.0352 20.4222 12.5074 19.7791 12.1958 19.0267C11.8841 18.2743 11.8026 17.4464 11.9615 16.6477C12.1204 15.8489 12.5125 15.1152 13.0884 14.5394C13.6642 13.9635 14.3979 13.5713 15.1967 13.4125C15.9954 13.2536 16.8234 13.3351 17.5758 13.6468C18.3282 13.9584 18.9712 14.4862 19.4237 15.1633C19.8762 15.8405 20.1176 16.6366 20.1176 17.451C20.1176 18.543 19.6838 19.5904 18.9116 20.3626C18.1394 21.1348 17.0921 21.5686 16 21.5686Z" fill="white"/>
</svg>
