<svg width="33" height="32" viewBox="0 0 33 32" fill="none" xmlns="http://www.w3.org/2000/svg">
<path d="M16.5012 10.6187C15.4259 10.6187 14.3748 10.9376 13.4807 11.535C12.5866 12.1324 11.8898 12.9815 11.4783 13.9749C11.0668 14.9684 10.9591 16.0615 11.1689 17.1161C11.3787 18.1707 11.8965 19.1395 12.6568 19.8998C13.4172 20.6602 14.3859 21.178 15.4405 21.3877C16.4951 21.5975 17.5883 21.4898 18.5817 21.0784C19.5752 20.6669 20.4243 19.97 21.0217 19.076C21.6191 18.1819 21.9379 17.1307 21.9379 16.0555C21.936 14.6141 21.3626 13.2324 20.3435 12.2132C19.3243 11.194 17.9425 10.6206 16.5012 10.6187ZM16.5012 20.0739C15.7064 20.0739 14.9295 19.8382 14.2686 19.3967C13.6078 18.9551 13.0928 18.3275 12.7886 17.5933C12.4845 16.859 12.4049 16.051 12.5599 15.2715C12.715 14.492 13.0977 13.776 13.6597 13.214C14.2217 12.652 14.9377 12.2693 15.7172 12.1142C16.4967 11.9592 17.3047 12.0387 18.039 12.3429C18.7733 12.647 19.4008 13.1621 19.8424 13.8229C20.284 14.4838 20.5196 15.2607 20.5196 16.0555C20.5196 17.1212 20.0963 18.1433 19.3427 18.8969C18.589 19.6505 17.5669 20.0739 16.5012 20.0739ZM29.2657 13.6444C29.2451 13.5456 29.2037 13.4523 29.1442 13.3707C29.0847 13.2892 29.0084 13.2213 28.9206 13.1716L25.3229 11.1175L25.2732 11.0336L25.259 6.97848C25.2591 6.87606 25.2369 6.77484 25.194 6.6818C25.1512 6.58877 25.0887 6.50612 25.0108 6.43954C23.7543 5.3771 22.3077 4.56256 20.7477 4.0391C20.654 4.00757 20.5546 3.99601 20.4561 4.00517C20.3576 4.01433 20.2621 4.04401 20.1757 4.09229L16.5555 6.11097H16.4374L12.8267 4.08992C12.7399 4.0415 12.6439 4.01185 12.545 4.00289C12.446 3.99393 12.3463 4.00586 12.2523 4.03792C10.6924 4.56291 9.24651 5.3795 7.99151 6.44427C7.91339 6.51049 7.85054 6.59285 7.80729 6.68569C7.76403 6.77852 7.7414 6.87962 7.74095 6.98203L7.72204 11.0407C7.70549 11.0679 7.68894 11.0962 7.67358 11.1246L4.08061 13.1681C3.99231 13.2185 3.9159 13.2874 3.85655 13.37C3.79721 13.4526 3.75633 13.547 3.73667 13.6468C3.42111 15.2379 3.42111 16.8754 3.73667 18.4665C3.75724 18.5654 3.79866 18.6587 3.85818 18.7402C3.91769 18.8217 3.99393 18.8896 4.08179 18.9393L7.67712 20.9875L7.72676 21.0714L7.74095 25.1265C7.74037 25.2301 7.76251 25.3326 7.8058 25.4268C7.84909 25.5209 7.91248 25.6044 7.99151 25.6714C9.24803 26.7338 10.6946 27.5484 12.2546 28.0718C12.3484 28.1034 12.4477 28.1149 12.5463 28.1058C12.6448 28.0966 12.7403 28.0669 12.8267 28.0186L16.4444 26H16.5626L20.1745 28.021C20.2802 28.0794 20.3989 28.1103 20.5196 28.1108C20.5973 28.1112 20.6744 28.0984 20.7477 28.073C22.3055 27.5473 23.7493 26.7308 25.0026 25.6667C25.0807 25.6004 25.1435 25.5181 25.1868 25.4252C25.23 25.3324 25.2527 25.2313 25.2531 25.1289L25.272 21.0703C25.2886 21.0431 25.3051 21.0147 25.3205 20.9863L28.9158 18.9428C29.0044 18.8925 29.081 18.8237 29.1406 18.7411C29.2001 18.6585 29.2412 18.5641 29.261 18.4642C29.5781 16.8734 29.5797 15.2358 29.2657 13.6444ZM27.936 17.8744L24.4577 19.8494C24.3449 19.9139 24.2518 20.0079 24.1882 20.1212C24.1185 20.2394 24.0452 20.3706 23.9684 20.4923C23.8985 20.6044 23.8612 20.7337 23.8609 20.8658L23.842 24.7909C22.864 25.5744 21.7656 26.1942 20.5894 26.6264L17.0921 24.6691C16.9864 24.6097 16.8671 24.5784 16.7458 24.5781H16.2873C16.1605 24.5751 16.0351 24.6061 15.9244 24.668L12.4177 26.6252C11.24 26.1952 10.1399 25.5769 9.16041 24.7944L9.14622 20.8741C9.14585 20.742 9.1086 20.6126 9.03867 20.5006C8.96303 20.3824 8.88857 20.2548 8.81884 20.1295C8.75595 20.016 8.66315 19.922 8.55055 19.8576L5.07222 17.8756C4.87002 16.671 4.87002 15.4411 5.07222 14.2365L8.54464 12.2616C8.65916 12.1977 8.754 12.1037 8.81884 11.9897C8.88857 11.8715 8.96185 11.7404 9.03867 11.6186C9.1086 11.5066 9.14585 11.3772 9.14622 11.2451L9.16513 7.32005C10.1416 6.53701 11.2384 5.91716 12.413 5.48456L15.9102 7.44179C16.0205 7.50471 16.1461 7.5358 16.2731 7.53161H16.7151C16.8419 7.53466 16.9672 7.50364 17.0779 7.44179L20.5823 5.48456C21.76 5.91451 22.8601 6.5328 23.8396 7.31533L23.8538 11.2357C23.8541 11.3678 23.8914 11.4971 23.9613 11.6092C24.037 11.7274 24.1114 11.855 24.1812 11.9803C24.244 12.0937 24.3368 12.1877 24.4494 12.2521L27.9301 14.2353C28.1335 15.4397 28.1347 16.6696 27.9337 17.8744H27.936Z" fill="white"/>
</svg>
