<svg width="650" height="693" viewBox="0 0 650 693" fill="none" xmlns="http://www.w3.org/2000/svg">
<path d="M565.416 656.116C533.714 656.116 508.698 629.169 511.053 597.554L539.249 218.976C540.235 205.73 551.27 195.487 564.552 195.487V195.487C577.789 195.487 588.802 205.664 589.846 218.861L619.759 597.307C622.265 629.009 597.216 656.116 565.416 656.116V656.116Z" fill="url(#paint0_linear_605_16684)"/>
<path d="M405.815 450.522H211.941L284.311 275.687L306.114 223.073L240.244 72.6523L193.567 177.471L181.59 204.341C181.59 204.341 181.59 204.341 181.539 204.392V204.443L5.83429 598.537C-13.7681 642.502 18.4248 692.045 66.5862 692.045C80.0469 692.045 92.791 687.95 103.539 680.836C114.287 673.671 122.885 663.435 128.004 650.998L156 583.132L165.826 559.332H453.413L405.815 450.522Z" fill="url(#paint1_linear_605_16684)"/>
<path d="M611.414 662.871C599.745 680.221 579.989 692.146 556.394 692.146H553.017C526.095 692.146 501.835 675.922 491.599 651.048L453.674 559.383L405.973 450.623L393.383 421.911L350.698 324.564L306.221 223.124L247.977 90.1042L240.402 72.7026H306.119C352.284 72.7026 394.15 99.8286 412.934 141.951L449.682 224.096L538.072 421.86L617.044 598.434C627.076 620.902 623.595 644.804 611.414 662.871Z" fill="url(#paint2_linear_605_16684)"/>
<path d="M650 88.0062C650.02 90.5569 649.244 93.0504 647.782 95.14C646.32 97.2296 644.243 98.8116 641.84 99.6661L592.542 117.599L574.622 166.905C573.739 169.285 572.149 171.338 570.065 172.787C567.981 174.237 565.504 175.014 562.966 175.014C560.428 175.014 557.95 174.237 555.867 172.787C553.783 171.338 552.193 169.285 551.309 166.905L533.382 117.545L484.091 99.6661C481.712 98.7826 479.66 97.1919 478.21 95.1075C476.761 93.0232 475.984 90.5451 475.984 88.0062C475.984 85.4674 476.761 82.9893 478.21 80.905C479.66 78.8206 481.712 77.2299 484.091 76.3464L533.436 58.4135L551.309 9.10777C552.193 6.72758 553.783 4.67478 555.867 3.22516C557.95 1.77554 560.428 0.998535 562.966 0.998535C565.504 0.998535 567.981 1.77554 570.065 3.22516C572.149 4.67478 573.739 6.72758 574.622 9.10777L592.55 58.4679L641.84 76.3464C644.243 77.2008 646.32 78.7829 647.782 80.8725C649.244 82.9621 650.02 85.4556 650 88.0062Z" fill="url(#paint3_linear_605_16684)"/>
<defs>
<linearGradient id="paint0_linear_605_16684" x1="447.833" y1="-63.6165" x2="743.847" y2="-53.0979" gradientUnits="userSpaceOnUse">
<stop stop-color="#EE5340"/>
<stop offset="1" stop-color="#FCB348"/>
</linearGradient>
<linearGradient id="paint1_linear_605_16684" x1="-47.281" y1="-123.49" x2="489.024" y2="-111.864" gradientUnits="userSpaceOnUse">
<stop stop-color="#EA3D3D"/>
<stop offset="1" stop-color="#FDC049"/>
</linearGradient>
<linearGradient id="paint2_linear_605_16684" x1="96.2712" y1="27.0994" x2="662.441" y2="73.1006" gradientUnits="userSpaceOnUse">
<stop stop-color="#F75E4B"/>
<stop offset="0.84375" stop-color="#FCB348"/>
</linearGradient>
<linearGradient id="paint3_linear_605_16684" x1="388.976" y1="-96.8851" x2="818.805" y2="-37.1194" gradientUnits="userSpaceOnUse">
<stop stop-color="#EE5340"/>
<stop offset="1" stop-color="#FCB348"/>
</linearGradient>
</defs>
</svg>
