<svg width="44" height="44" viewBox="0 0 44 44" fill="none" xmlns="http://www.w3.org/2000/svg">
<circle cx="22" cy="22" r="18" fill="#333333"/>
<path d="M26.0833 17.3333H15.5833C15.4286 17.3333 15.2803 17.3948 15.1709 17.5042C15.0615 17.6136 15 17.762 15 17.9167V28.4167C15 28.5714 15.0615 28.7197 15.1709 28.8291C15.2803 28.9385 15.4286 29 15.5833 29H26.0833C26.238 29 26.3864 28.9385 26.4958 28.8291C26.6052 28.7197 26.6667 28.5714 26.6667 28.4167V17.9167C26.6667 17.762 26.6052 17.6136 26.4958 17.5042C26.3864 17.3948 26.238 17.3333 26.0833 17.3333ZM25.5 27.8333H16.1667V18.5H25.5V27.8333ZM29 15.5833V26.0833C29 26.238 28.9385 26.3864 28.8291 26.4958C28.7197 26.6052 28.5714 26.6667 28.4167 26.6667C28.262 26.6667 28.1136 26.6052 28.0042 26.4958C27.8948 26.3864 27.8333 26.238 27.8333 26.0833V16.1667H17.9167C17.762 16.1667 17.6136 16.1052 17.5042 15.9958C17.3948 15.8864 17.3333 15.738 17.3333 15.5833C17.3333 15.4286 17.3948 15.2803 17.5042 15.1709C17.6136 15.0615 17.762 15 17.9167 15H28.4167C28.5714 15 28.7197 15.0615 28.8291 15.1709C28.9385 15.2803 29 15.4286 29 15.5833Z" fill="white"/>
</svg>
