<svg width="27" height="23" viewBox="0 0 27 23" fill="none" xmlns="http://www.w3.org/2000/svg">
<path d="M23.5 3.25H19.9013L18.125 0.583751C18.0564 0.480923 17.9634 0.396646 17.8544 0.338418C17.7454 0.280191 17.6236 0.249818 17.5 0.250001H9.5C9.37639 0.249818 9.25464 0.280191 9.1456 0.338418C9.03656 0.396646 8.94361 0.480923 8.875 0.583751L7.0975 3.25H3.5C2.77065 3.25 2.07118 3.53973 1.55546 4.05546C1.03973 4.57118 0.75 5.27066 0.75 6V20C0.75 20.7293 1.03973 21.4288 1.55546 21.9445C2.07118 22.4603 2.77065 22.75 3.5 22.75H23.5C24.2293 22.75 24.9288 22.4603 25.4445 21.9445C25.9603 21.4288 26.25 20.7293 26.25 20V6C26.25 5.27066 25.9603 4.57118 25.4445 4.05546C24.9288 3.53973 24.2293 3.25 23.5 3.25ZM24.75 20C24.75 20.3315 24.6183 20.6495 24.3839 20.8839C24.1495 21.1183 23.8315 21.25 23.5 21.25H3.5C3.16848 21.25 2.85054 21.1183 2.61612 20.8839C2.3817 20.6495 2.25 20.3315 2.25 20V6C2.25 5.66848 2.3817 5.35054 2.61612 5.11612C2.85054 4.8817 3.16848 4.75 3.5 4.75H7.5C7.62361 4.75018 7.74536 4.71981 7.8544 4.66158C7.96344 4.60336 8.05639 4.51908 8.125 4.41625L9.90125 1.75H17.0975L18.875 4.41625C18.9436 4.51908 19.0366 4.60336 19.1456 4.66158C19.2546 4.71981 19.3764 4.75018 19.5 4.75H23.5C23.8315 4.75 24.1495 4.8817 24.3839 5.11612C24.6183 5.35054 24.75 5.66848 24.75 6V20ZM18.25 13C18.25 13.1989 18.171 13.3897 18.0303 13.5303C17.8897 13.671 17.6989 13.75 17.5 13.75H14.25V17C14.25 17.1989 14.171 17.3897 14.0303 17.5303C13.8897 17.671 13.6989 17.75 13.5 17.75C13.3011 17.75 13.1103 17.671 12.9697 17.5303C12.829 17.3897 12.75 17.1989 12.75 17V13.75H9.5C9.30109 13.75 9.11032 13.671 8.96967 13.5303C8.82902 13.3897 8.75 13.1989 8.75 13C8.75 12.8011 8.82902 12.6103 8.96967 12.4697C9.11032 12.329 9.30109 12.25 9.5 12.25H12.75V9C12.75 8.80109 12.829 8.61032 12.9697 8.46967C13.1103 8.32902 13.3011 8.25 13.5 8.25C13.6989 8.25 13.8897 8.32902 14.0303 8.46967C14.171 8.61032 14.25 8.80109 14.25 9V12.25H17.5C17.6989 12.25 17.8897 12.329 18.0303 12.4697C18.171 12.6103 18.25 12.8011 18.25 13Z" fill="white"/>
</svg>
