<svg width="32" height="32" viewBox="0 0 32 32" fill="none" xmlns="http://www.w3.org/2000/svg">
<path d="M26 15.997C26.0022 16.29 25.9131 16.5765 25.7451 16.8166C25.577 17.0567 25.3383 17.2385 25.0622 17.3366L19.3962 19.3971L17.3366 25.0622C17.2351 25.3357 17.0524 25.5715 16.8129 25.7381C16.5734 25.9046 16.2887 25.9939 15.997 25.9939C15.7052 25.9939 15.4205 25.9046 15.181 25.7381C14.9416 25.5715 14.7588 25.3357 14.6573 25.0622L12.5968 19.3908L6.93173 17.3366C6.65825 17.2351 6.42239 17.0524 6.25583 16.8129C6.08928 16.5734 6 16.2887 6 15.997C6 15.7052 6.08928 15.4205 6.25583 15.181C6.42239 14.9416 6.65825 14.7588 6.93173 14.6573L12.6031 12.5968L14.6573 6.93173C14.7588 6.65825 14.9416 6.42239 15.181 6.25583C15.4205 6.08928 15.7052 6 15.997 6C16.2887 6 16.5734 6.08928 16.8129 6.25583C17.0524 6.42239 17.2351 6.65825 17.3366 6.93173L19.3971 12.6031L25.0622 14.6573C25.3383 14.7554 25.577 14.9372 25.7451 15.1773C25.9131 15.4174 26.0022 15.7039 26 15.997Z" fill="white"/>
</svg>
