<svg width="33" height="32" viewBox="0 0 33 32" fill="none" xmlns="http://www.w3.org/2000/svg">
<path d="M29.2611 13.66C29.2352 13.5293 29.1815 13.4056 29.1036 13.2975C29.0257 13.1893 28.9254 13.0992 28.8096 13.0333L25.3474 11.0602L25.3335 7.15815C25.3331 7.02377 25.3035 6.89107 25.2468 6.76924C25.1901 6.64741 25.1076 6.53933 25.005 6.45249C23.7492 5.39016 22.3029 4.57606 20.7432 4.05346C20.6204 4.01189 20.4902 3.9965 20.3611 4.0083C20.2319 4.02009 20.1067 4.0588 19.9934 4.12194L16.5011 6.07412L13.0053 4.11846C12.8919 4.05497 12.7666 4.01596 12.6372 4.00397C12.5079 3.99197 12.3774 4.00725 12.2544 4.04882C10.6956 4.57477 9.25092 5.39202 7.99716 6.45713C7.89475 6.54385 7.81236 6.65173 7.75566 6.77336C7.69895 6.89498 7.66929 7.02744 7.6687 7.16163L7.65129 11.0672L4.18913 13.0402C4.0733 13.1062 3.97302 13.1963 3.89512 13.3044C3.81721 13.4126 3.7635 13.5362 3.73764 13.667C3.42079 15.2592 3.42079 16.8983 3.73764 18.4906C3.7635 18.6213 3.81721 18.745 3.89512 18.8531C3.97302 18.9612 4.0733 19.0513 4.18913 19.1173L7.65129 21.0904L7.66522 24.9936C7.66564 25.128 7.69522 25.2606 7.75193 25.3825C7.80864 25.5043 7.89112 25.6124 7.99368 25.6992C9.24956 26.7616 10.6958 27.5757 12.2555 28.0983C12.3783 28.1398 12.5085 28.1552 12.6376 28.1434C12.7668 28.1316 12.892 28.0929 13.0053 28.0298L16.5011 26.0718L19.9969 28.0275C20.1353 28.1045 20.2912 28.1445 20.4496 28.1435C20.551 28.1435 20.6517 28.127 20.7478 28.0948C22.3062 27.5691 23.7508 26.7526 25.005 25.6888C25.1074 25.6021 25.1898 25.4942 25.2465 25.3726C25.3032 25.2509 25.3329 25.1185 25.3335 24.9843L25.3509 21.0788L28.8131 19.1057C28.9289 19.0397 29.0292 18.9496 29.1071 18.8415C29.185 18.7333 29.2387 18.6097 29.2646 18.4789C29.5796 16.888 29.5785 15.2505 29.2611 13.66ZM16.5011 20.7155C15.5829 20.7155 14.6853 20.4432 13.9219 19.9331C13.1584 19.4229 12.5633 18.6979 12.212 17.8496C11.8606 17.0013 11.7686 16.0678 11.9478 15.1672C12.1269 14.2667 12.5691 13.4395 13.2183 12.7902C13.8676 12.1409 14.6948 11.6988 15.5954 11.5196C16.4959 11.3405 17.4294 11.4324 18.2777 11.7838C19.126 12.1352 19.8511 12.7302 20.3612 13.4937C20.8713 14.2572 21.1436 15.1548 21.1436 16.073C21.1436 17.3042 20.6545 18.4851 19.7839 19.3557C18.9132 20.2264 17.7324 20.7155 16.5011 20.7155Z" fill="white"/>
</svg>
