<svg width="33" height="32" viewBox="0 0 33 32" fill="none" xmlns="http://www.w3.org/2000/svg">
<path d="M26.5 4H10.5C9.96957 4 9.46086 4.21071 9.08579 4.58579C8.71071 4.96086 8.5 5.46957 8.5 6V8H6.5C5.96957 8 5.46086 8.21071 5.08579 8.58579C4.71071 8.96086 4.5 9.46957 4.5 10V26C4.5 26.5304 4.71071 27.0391 5.08579 27.4142C5.46086 27.7893 5.96957 28 6.5 28H22.5C23.0304 28 23.5391 27.7893 23.9142 27.4142C24.2893 27.0391 24.5 26.5304 24.5 26V24H26.5C27.0304 24 27.5391 23.7893 27.9142 23.4142C28.2893 23.0391 28.5 22.5304 28.5 22V6C28.5 5.46957 28.2893 4.96086 27.9142 4.58579C27.5391 4.21071 27.0304 4 26.5 4ZM10.5 6H26.5V14.6725L24.4125 12.585C24.0375 12.2102 23.529 11.9997 22.9988 11.9997C22.4685 11.9997 21.96 12.2102 21.585 12.585L12.1713 22H10.5V6ZM22.5 26H6.5V10H8.5V22C8.5 22.5304 8.71071 23.0391 9.08579 23.4142C9.46086 23.7893 9.96957 24 10.5 24H22.5V26ZM13.5 11C13.5 10.6044 13.6173 10.2178 13.8371 9.88886C14.0568 9.55996 14.3692 9.30362 14.7346 9.15224C15.1001 9.00087 15.5022 8.96126 15.8902 9.03843C16.2781 9.1156 16.6345 9.30608 16.9142 9.58579C17.1939 9.86549 17.3844 10.2219 17.4616 10.6098C17.5387 10.9978 17.4991 11.3999 17.3478 11.7654C17.1964 12.1308 16.94 12.4432 16.6111 12.6629C16.2822 12.8827 15.8956 13 15.5 13C14.9696 13 14.4609 12.7893 14.0858 12.4142C13.7107 12.0391 13.5 11.5304 13.5 11Z" fill="white"/>
</svg>
