<svg width="32" height="32" viewBox="0 0 32 32" fill="none" xmlns="http://www.w3.org/2000/svg">
<path d="M6.47 14.53C6.33752 14.3878 6.2654 14.1998 6.26883 14.0055C6.27225 13.8112 6.35097 13.6258 6.48838 13.4884C6.62579 13.351 6.81118 13.2723 7.00548 13.2688C7.19978 13.2654 7.38783 13.3375 7.53 13.47L15.25 21.1887V4C15.25 3.80109 15.329 3.61032 15.4697 3.46967C15.6103 3.32902 15.8011 3.25 16 3.25C16.1989 3.25 16.3897 3.32902 16.5303 3.46967C16.671 3.61032 16.75 3.80109 16.75 4V21.1887L24.47 13.47C24.6122 13.3375 24.8002 13.2654 24.9945 13.2688C25.1888 13.2723 25.3742 13.351 25.5116 13.4884C25.649 13.6258 25.7277 13.8112 25.7312 14.0055C25.7346 14.1998 25.6625 14.3878 25.53 14.53L16.53 23.53C16.3894 23.6705 16.1988 23.7493 16 23.7493C15.8012 23.7493 15.6106 23.6705 15.47 23.53L6.47 14.53ZM27 26.25H5C4.80109 26.25 4.61032 26.329 4.46967 26.4697C4.32902 26.6103 4.25 26.8011 4.25 27C4.25 27.1989 4.32902 27.3897 4.46967 27.5303C4.61032 27.671 4.80109 27.75 5 27.75H27C27.1989 27.75 27.3897 27.671 27.5303 27.5303C27.671 27.3897 27.75 27.1989 27.75 27C27.75 26.8011 27.671 26.6103 27.5303 26.4697C27.3897 26.329 27.1989 26.25 27 26.25Z" fill="white"/>
</svg>
