<svg width="44" height="44" viewBox="0 0 44 44" fill="none" xmlns="http://www.w3.org/2000/svg">
<circle cx="22" cy="22" r="18" fill="#333333"/>
<path d="M28.7949 27.8044C28.8599 27.8695 28.9115 27.9467 28.9467 28.0316C28.9819 28.1166 29 28.2077 29 28.2996C29 28.3916 28.9819 28.4827 28.9467 28.5677C28.9115 28.6526 28.8599 28.7298 28.7949 28.7949C28.7298 28.8599 28.6526 28.9115 28.5677 28.9467C28.4827 28.9819 28.3916 29 28.2996 29C28.2077 29 28.1166 28.9819 28.0316 28.9467C27.9467 28.9115 27.8695 28.8599 27.8044 28.7949L22 22.9896L16.1956 28.7949C16.0642 28.9262 15.8861 29 15.7004 29C15.5146 29 15.3365 28.9262 15.2051 28.7949C15.0738 28.6635 15 28.4854 15 28.2996C15 28.1139 15.0738 27.9358 15.2051 27.8044L21.0104 22L15.2051 16.1956C15.0738 16.0642 15 15.8861 15 15.7004C15 15.5146 15.0738 15.3365 15.2051 15.2051C15.3365 15.0738 15.5146 15 15.7004 15C15.8861 15 16.0642 15.0738 16.1956 15.2051L22 21.0104L27.8044 15.2051C27.9358 15.0738 28.1139 15 28.2996 15C28.4854 15 28.6635 15.0738 28.7949 15.2051C28.9262 15.3365 29 15.5146 29 15.7004C29 15.8861 28.9262 16.0642 28.7949 16.1956L22.9896 22L28.7949 27.8044Z" fill="white"/>
</svg>
