<svg width="33" height="32" viewBox="0 0 33 32" fill="none" xmlns="http://www.w3.org/2000/svg">
<path d="M26.5 4.25H10.5C10.0359 4.25 9.59075 4.43437 9.26256 4.76256C8.93437 5.09075 8.75 5.53587 8.75 6V8.25H6.5C6.03587 8.25 5.59075 8.43437 5.26256 8.76256C4.93437 9.09075 4.75 9.53587 4.75 10V26C4.75 26.4641 4.93437 26.9092 5.26256 27.2374C5.59075 27.5656 6.03587 27.75 6.5 27.75H22.5C22.9641 27.75 23.4092 27.5656 23.7374 27.2374C24.0656 26.9092 24.25 26.4641 24.25 26V23.75H26.5C26.9641 23.75 27.4092 23.5656 27.7374 23.2374C28.0656 22.9092 28.25 22.4641 28.25 22V6C28.25 5.53587 28.0656 5.09075 27.7374 4.76256C27.4092 4.43437 26.9641 4.25 26.5 4.25ZM10.25 6C10.25 5.9337 10.2763 5.87011 10.3232 5.82322C10.3701 5.77634 10.4337 5.75 10.5 5.75H26.5C26.5663 5.75 26.6299 5.77634 26.6768 5.82322C26.7237 5.87011 26.75 5.9337 26.75 6V15.275L24.2375 12.7625C24.075 12.6 23.8821 12.4711 23.6697 12.3831C23.4574 12.2951 23.2298 12.2499 23 12.2499C22.7702 12.2499 22.5426 12.2951 22.3303 12.3831C22.1179 12.4711 21.925 12.6 21.7625 12.7625L12.275 22.25H10.5C10.4337 22.25 10.3701 22.2237 10.3232 22.1768C10.2763 22.1299 10.25 22.0663 10.25 22V6ZM22.75 26C22.75 26.0663 22.7237 26.1299 22.6768 26.1768C22.6299 26.2237 22.5663 26.25 22.5 26.25H6.5C6.4337 26.25 6.37011 26.2237 6.32322 26.1768C6.27634 26.1299 6.25 26.0663 6.25 26V10C6.25 9.9337 6.27634 9.87011 6.32322 9.82322C6.37011 9.77634 6.4337 9.75 6.5 9.75H8.75V22C8.75 22.4641 8.93437 22.9092 9.26256 23.2374C9.59075 23.5656 10.0359 23.75 10.5 23.75H22.75V26ZM26.5 22.25H14.3962L22.8225 13.8237C22.8457 13.8005 22.8733 13.7821 22.9036 13.7695C22.934 13.7569 22.9665 13.7504 22.9994 13.7504C23.0322 13.7504 23.0648 13.7569 23.0951 13.7695C23.1255 13.7821 23.153 13.8005 23.1763 13.8237L26.75 17.3962V22C26.75 22.0663 26.7237 22.1299 26.6768 22.1768C26.6299 22.2237 26.5663 22.25 26.5 22.25ZM15.5 13.75C16.0439 13.75 16.5756 13.5887 17.0278 13.2865C17.4801 12.9844 17.8325 12.5549 18.0407 12.0524C18.2488 11.5499 18.3033 10.9969 18.1972 10.4635C18.091 9.93005 17.8291 9.44005 17.4445 9.05546C17.0599 8.67086 16.5699 8.40895 16.0365 8.30284C15.5031 8.19673 14.9501 8.25119 14.4476 8.45933C13.9451 8.66747 13.5156 9.01995 13.2135 9.47218C12.9113 9.92442 12.75 10.4561 12.75 11C12.75 11.7293 13.0397 12.4288 13.5555 12.9445C14.0712 13.4603 14.7707 13.75 15.5 13.75ZM15.5 9.75C15.7472 9.75 15.9889 9.82331 16.1945 9.96066C16.4 10.098 16.5602 10.2932 16.6549 10.5216C16.7495 10.7501 16.7742 11.0014 16.726 11.2439C16.6777 11.4863 16.5587 11.7091 16.3839 11.8839C16.2091 12.0587 15.9863 12.1778 15.7439 12.226C15.5014 12.2742 15.2501 12.2495 15.0216 12.1548C14.7932 12.0602 14.598 11.9 14.4607 11.6945C14.3233 11.4889 14.25 11.2472 14.25 11C14.25 10.6685 14.3817 10.3505 14.6161 10.1161C14.8505 9.8817 15.1685 9.75 15.5 9.75Z" fill="white"/>
</svg>
