<svg width="32" height="32" viewBox="0 0 32 32" fill="none" xmlns="http://www.w3.org/2000/svg">
<path d="M27.2157 5H4.78431C4.31108 5 3.85724 5.18799 3.52261 5.52261C3.18799 5.85724 3 6.31108 3 6.78431V25.1373C3 25.6105 3.18799 26.0643 3.52261 26.399C3.85724 26.7336 4.31108 26.9216 4.78431 26.9216H27.2157C27.6889 26.9216 28.1428 26.7336 28.4774 26.399C28.812 26.0643 29 25.6105 29 25.1373V6.78431C29 6.31108 28.812 5.85724 28.4774 5.52261C28.1428 5.18799 27.6889 5 27.2157 5ZM4.78431 6.52941H27.2157C27.2833 6.52941 27.3481 6.55627 27.3959 6.60407C27.4437 6.65187 27.4706 6.71671 27.4706 6.78431V20.4942L23.7146 16.7382C23.5489 16.5725 23.3522 16.4411 23.1357 16.3514C22.9192 16.2617 22.6872 16.2156 22.4528 16.2156C22.2185 16.2156 21.9865 16.2617 21.77 16.3514C21.5535 16.4411 21.3568 16.5725 21.1911 16.7382L18.4611 19.4682L12.6735 13.6794C12.5078 13.5137 12.3111 13.3823 12.0946 13.2926C11.8781 13.2029 11.6461 13.1567 11.4118 13.1567C11.1774 13.1567 10.9454 13.2029 10.7289 13.2926C10.5124 13.3823 10.3157 13.5137 10.15 13.6794L4.52941 19.3V6.78431C4.52941 6.71671 4.55627 6.65187 4.60407 6.60407C4.65187 6.55627 4.71671 6.52941 4.78431 6.52941ZM4.52941 25.1373V21.4628L11.2308 14.7615C11.2545 14.7376 11.2827 14.7186 11.3137 14.7057C11.3448 14.6927 11.3781 14.6861 11.4118 14.6861C11.4454 14.6861 11.4787 14.6927 11.5098 14.7057C11.5409 14.7186 11.569 14.7376 11.5927 14.7615L22.2234 25.3922H4.78431C4.71671 25.3922 4.65187 25.3653 4.60407 25.3175C4.55627 25.2697 4.52941 25.2049 4.52941 25.1373ZM27.2157 25.3922H24.3863L19.5431 20.549L22.2719 17.819C22.2955 17.7953 22.3237 17.7765 22.3546 17.7637C22.3855 17.7509 22.4187 17.7443 22.4522 17.7443C22.4857 17.7443 22.5189 17.7509 22.5498 17.7637C22.5808 17.7765 22.6089 17.7953 22.6325 17.819L27.4757 22.6622V25.1373C27.4757 25.1712 27.4689 25.2047 27.4558 25.236C27.4427 25.2673 27.4234 25.2956 27.3992 25.3193C27.375 25.3431 27.3463 25.3617 27.3148 25.3742C27.2833 25.3867 27.2496 25.3928 27.2157 25.3922ZM18.2941 12.3922C18.2941 12.1401 18.3689 11.8937 18.5089 11.6841C18.649 11.4745 18.848 11.3111 19.0809 11.2147C19.3138 11.1182 19.57 11.093 19.8173 11.1421C20.0645 11.1913 20.2916 11.3127 20.4698 11.4909C20.6481 11.6692 20.7695 11.8963 20.8186 12.1435C20.8678 12.3907 20.8426 12.647 20.7461 12.8799C20.6497 13.1128 20.4863 13.3118 20.2767 13.4519C20.0671 13.5919 19.8207 13.6667 19.5686 13.6667C19.2306 13.6667 18.9064 13.5324 18.6674 13.2934C18.4284 13.0544 18.2941 12.7302 18.2941 12.3922Z" fill="white"/>
</svg>
