<svg width="23" height="23" viewBox="0 0 23 23" fill="none" xmlns="http://www.w3.org/2000/svg">
<path d="M12.6275 17.3627C12.6275 17.5857 12.5613 17.8037 12.4374 17.9891C12.3136 18.1745 12.1375 18.319 11.9315 18.4044C11.7254 18.4897 11.4988 18.512 11.28 18.4685C11.0613 18.425 10.8605 18.3176 10.7028 18.16C10.5451 18.0023 10.4377 17.8014 10.3942 17.5827C10.3507 17.364 10.373 17.1373 10.4584 16.9313C10.5437 16.7253 10.6882 16.5492 10.8736 16.4253C11.059 16.3014 11.277 16.2353 11.5 16.2353C11.799 16.2353 12.0858 16.3541 12.2972 16.5655C12.5087 16.777 12.6275 17.0637 12.6275 17.3627ZM11.5 5.41176C9.13236 5.41176 7.21569 7.13113 7.21569 9.2451V9.69608C7.21569 9.87549 7.28696 10.0476 7.41382 10.1744C7.54069 10.3013 7.71275 10.3725 7.89216 10.3725C8.07157 10.3725 8.24363 10.3013 8.3705 10.1744C8.49736 10.0476 8.56863 9.87549 8.56863 9.69608V9.2451C8.56863 7.8775 9.88324 6.7647 11.5 6.7647C13.1168 6.7647 14.4314 7.8775 14.4314 9.2451C14.4314 10.6127 13.1168 11.7255 11.5 11.7255C11.3206 11.7255 11.1485 11.7968 11.0217 11.9236C10.8948 12.0505 10.8235 12.2225 10.8235 12.402V13.3039C10.8235 13.4833 10.8948 13.6554 11.0217 13.7823C11.1485 13.9091 11.3206 13.9804 11.5 13.9804C11.6794 13.9804 11.8515 13.9091 11.9783 13.7823C12.1052 13.6554 12.1765 13.4833 12.1765 13.3039V13.0311C14.2183 12.7402 15.7843 11.1527 15.7843 9.2451C15.7843 7.13113 13.8677 5.41176 11.5 5.41176ZM23 11.5C23 13.7745 22.3255 15.9979 21.0619 17.8891C19.7983 19.7802 18.0022 21.2542 15.9009 22.1246C13.7995 22.995 11.4872 23.2228 9.25646 22.779C7.02568 22.3353 4.97658 21.24 3.36828 19.6317C1.75997 18.0234 0.664704 15.9743 0.220974 13.7435C-0.222755 11.5128 0.00498257 9.20049 0.87539 7.09914C1.7458 4.99779 3.21978 3.20173 5.11095 1.9381C7.00211 0.674463 9.22552 0 11.5 0C14.5489 0.00358061 17.4719 1.21633 19.6278 3.37223C21.7837 5.52812 22.9964 8.45111 23 11.5ZM21.6471 11.5C21.6471 9.4931 21.0519 7.53127 19.937 5.8626C18.822 4.19392 17.2372 2.89335 15.3831 2.12534C13.529 1.35733 11.4887 1.15639 9.52041 1.54791C7.55207 1.93944 5.74404 2.90585 4.32495 4.32494C2.90586 5.74404 1.93945 7.55207 1.54792 9.5204C1.15639 11.4887 1.35734 13.529 2.12534 15.3831C2.89335 17.2372 4.19393 18.822 5.8626 19.937C7.53128 21.0519 9.4931 21.6471 11.5 21.6471C14.1903 21.6441 16.7695 20.5741 18.6718 18.6718C20.5741 16.7695 21.6441 14.1902 21.6471 11.5Z" fill="white"/>
</svg>
