<svg width="32" height="32" viewBox="0 0 32 32" fill="none" xmlns="http://www.w3.org/2000/svg">
<path d="M29.7508 10V19C29.7508 19.1989 29.6718 19.3897 29.5312 19.5303C29.3905 19.671 29.1997 19.75 29.0008 19.75C28.8019 19.75 28.6111 19.671 28.4705 19.5303C28.3298 19.3897 28.2508 19.1989 28.2508 19V11.81L15.5308 24.53C15.3902 24.6705 15.1996 24.7493 15.0008 24.7493C14.8021 24.7493 14.6114 24.6705 14.4708 24.53L2.47082 12.53C2.33834 12.3878 2.26622 12.1998 2.26965 12.0055C2.27308 11.8112 2.35179 11.6258 2.4892 11.4884C2.62661 11.351 2.812 11.2723 3.0063 11.2688C3.2006 11.2654 3.38865 11.3375 3.53082 11.47L15.0008 22.9387L27.1908 10.75H20.0008C19.8019 10.75 19.6111 10.671 19.4705 10.5303C19.3298 10.3897 19.2508 10.1989 19.2508 10C19.2508 9.80109 19.3298 9.61032 19.4705 9.46967C19.6111 9.32902 19.8019 9.25 20.0008 9.25H29.0008C29.1997 9.25 29.3905 9.32902 29.5312 9.46967C29.6718 9.61032 29.7508 9.80109 29.7508 10Z" fill="white"/>
</svg>
