<svg width="32" height="32" viewBox="0 0 32 32" fill="none" xmlns="http://www.w3.org/2000/svg">
<path d="M19.8006 16.8001L13.1347 23.466C13.0727 23.528 12.9992 23.5771 12.9183 23.6106C12.8374 23.6441 12.7506 23.6614 12.6631 23.6614C12.5755 23.6614 12.4887 23.6441 12.4078 23.6106C12.3269 23.5771 12.2534 23.528 12.1914 23.466C12.1295 23.4041 12.0804 23.3306 12.0469 23.2496C12.0133 23.1687 11.9961 23.082 11.9961 22.9944C11.9961 22.9068 12.0133 22.8201 12.0469 22.7392C12.0804 22.6583 12.1295 22.5847 12.1914 22.5228L18.3866 16.3285L12.1914 10.1342C12.0664 10.0091 11.9961 9.83946 11.9961 9.66257C11.9961 9.48568 12.0664 9.31603 12.1914 9.19095C12.3165 9.06587 12.4862 8.99561 12.6631 8.99561C12.8399 8.99561 13.0096 9.06587 13.1347 9.19095L19.8006 15.8569C19.8626 15.9188 19.9117 15.9923 19.9453 16.0732C19.9788 16.1541 19.9961 16.2409 19.9961 16.3285C19.9961 16.4161 19.9788 16.5028 19.9453 16.5838C19.9117 16.6647 19.8626 16.7382 19.8006 16.8001Z" fill="#F9F8F8"/>
</svg>
